<svg xmlns="http://www.w3.org/2000/svg" version="1.1" xmlns:xlink="http://www.w3.org/1999/xlink" width="512" height="512" x="0" y="0" viewBox="0 0 512 512" style="enable-background:new 0 0 512 512" xml:space="preserve"><g><g data-name="Layer 2"><g data-name="Layer 1 copy 11"><g data-name="5"><path d="M256 213.47a20.44 20.44 0 0 0-20.42 20.42v129.69a20.42 20.42 0 0 0 40.84 0V233.89A20.44 20.44 0 0 0 256 213.47z" fill="#ffffff" opacity="1" data-original="#000000"></path><circle cx="256" cy="148.42" r="20.42" transform="rotate(-13.34 255.57 148.48)" fill="#ffffff" opacity="1" data-original="#000000"></circle><path d="M256 0C114.62 0 0 114.62 0 256s114.62 256 256 256 256-114.62 256-256S397.38 0 256 0zm32.42 363.58A32.42 32.42 0 0 1 256 396a32.42 32.42 0 0 1-32.42-32.42V233.89A32.42 32.42 0 0 1 256 201.47a32.42 32.42 0 0 1 32.42 32.42zM256 180.84a32.42 32.42 0 1 1 32.42-32.42A32.41 32.41 0 0 1 256 180.84z" fill="#ffffff" opacity="1" data-original="#000000"></path></g></g></g></g></svg>