<svg xmlns="http://www.w3.org/2000/svg" version="1.1" xmlns:xlink="http://www.w3.org/1999/xlink" width="512" height="512" x="0" y="0" viewBox="0 0 24 24" style="enable-background:new 0 0 512 512" xml:space="preserve" class=""><g><path d="M12 18.75a.76.76 0 0 1-.75-.75v-7a.75.75 0 0 1 1.5 0v7a.76.76 0 0 1-.75.75zM13.25 7A1.25 1.25 0 1 0 12 8.25 1.25 1.25 0 0 0 13.25 7zm9.5 5A10.75 10.75 0 1 0 12 22.75 10.76 10.76 0 0 0 22.75 12zm-1.5 0A9.25 9.25 0 1 1 12 2.75 9.26 9.26 0 0 1 21.25 12z" fill="#ffffff" opacity="1" data-original="#000000"></path></g></svg>