<svg xmlns="http://www.w3.org/2000/svg" version="1.1" xmlns:xlink="http://www.w3.org/1999/xlink" width="512" height="512" x="0" y="0" viewBox="0 0 64 64" style="enable-background:new 0 0 512 512" xml:space="preserve"><g><path d="m61.89 30.55-4-8A.977.977 0 0 0 57 22h-.76l-1-1H57a1 1 0 0 0 1-1v-4a1 1 0 0 0-1-1h-1.76l1.25-1.24a1.008 1.008 0 0 0 0-1.42l-2.83-2.83a1.008 1.008 0 0 0-1.42 0L51 10.76V9a1 1 0 0 0-1-1h-4a1 1 0 0 0-1 1v1.76l-1.24-1.25a1.008 1.008 0 0 0-1.42 0l-2.83 2.83a1.008 1.008 0 0 0 0 1.42L40.76 15H39a1 1 0 0 0-1 1v4a1 1 0 0 0 1 1h1.76l-1 1H34v-2.07a2.959 2.959 0 0 1 .98-2.21 9 9 0 0 0-2.6-15.07 1 1 0 0 0-1.38.93v6.88l-2 1.34-2-1.34V3.58a1 1 0 0 0-1.38-.93 9 9 0 0 0-2.6 15.07 2.959 2.959 0 0 1 .98 2.21V22h-1a.977.977 0 0 0-.89.55l-4 8A1 1 0 0 0 19 32h3v12.22l-2 .5V43a1 1 0 0 0-1-1h-8a1 1 0 0 0-1 1v1H3a1 1 0 0 0-1 1v14a1 1 0 0 0 1 1h7v1a1 1 0 0 0 1 1h8a1 1 0 0 0 1-1v-1.38l1.29.64a7.063 7.063 0 0 0 3.13.74h14.97a6.93 6.93 0 0 0 3.5-.94l16.8-9.7A3.993 3.993 0 0 0 58 42.92V32h3a1 1 0 0 0 .89-1.45ZM10 58H4V46h6Zm8 2h-6V44h6Zm22-41v-2h2.35a1.008 1.008 0 0 0 .96-.71 2.374 2.374 0 0 1 .17-.41 1 1 0 0 0-.18-1.17l-1.67-1.66 1.42-1.42 1.66 1.67a1 1 0 0 0 1.17.18 2.374 2.374 0 0 1 .41-.17 1.008 1.008 0 0 0 .71-.96V10h2v2.35a1.008 1.008 0 0 0 .71.96 2.374 2.374 0 0 1 .41.17 1 1 0 0 0 1.17-.18l1.66-1.67 1.42 1.42-1.67 1.66a1 1 0 0 0-.18 1.17 2.374 2.374 0 0 1 .17.41 1.008 1.008 0 0 0 .96.71H56v2h-2.35a1.008 1.008 0 0 0-.96.71 2.374 2.374 0 0 1-.17.41 1 1 0 0 0 .18 1.17l.72.71H42.58l.72-.71a1 1 0 0 0 .18-1.17 2.374 2.374 0 0 1-.17-.41 1.008 1.008 0 0 0-.96-.71Zm1 8.24 2.11 4.21A.977.977 0 0 0 44 32h12v11.28c-.1.05-.21.1-.31.15l-9.75 5.63a3.982 3.982 0 0 0-2.26-1.63L41 46.72ZM22 11a6.981 6.981 0 0 1 3-5.75V11a1 1 0 0 0 .45.83l3 2a.963.963 0 0 0 1.1 0l3-2A1 1 0 0 0 33 11V5.25a7 7 0 0 1 .66 10.97A4.919 4.919 0 0 0 32 19.93V22h-2v-3a1 1 0 0 0-2 0v3h-2v-2.07a4.945 4.945 0 0 0-1.65-3.71A6.957 6.957 0 0 1 22 11Zm-1.38 19 3-6h14.76l-3 6ZM39 27.24v18.94l-10.24-2.74a6.958 6.958 0 0 0-3.51-.03l-1.25.31V32h12a.977.977 0 0 0 .89-.55ZM59.41 45.9a2 2 0 0 1-.72 2.73l-16.8 9.7a4.982 4.982 0 0 1-2.5.67H24.42a4.956 4.956 0 0 1-2.24-.53L20 57.38v-10.6l5.73-1.43a4.964 4.964 0 0 1 2.51.02l14.92 4a1.991 1.991 0 0 1 .48 3.66 1.95 1.95 0 0 1-1.51.2l-11.93-3.2a1 1 0 0 0-.52 1.94l11.93 3.19a4.072 4.072 0 0 0 1.04.14 3.916 3.916 0 0 0 1.99-.54 3.975 3.975 0 0 0 1.87-2.43 4.118 4.118 0 0 0 .11-1.35l10.07-5.81a2.025 2.025 0 0 1 2.72.73ZM44.62 30l-3-6h14.76l3 6Z" fill="#ffffff" opacity="1" data-original="#000000"></path><path d="M52 18a4 4 0 1 0-4 4 4 4 0 0 0 4-4Zm-4 2a2 2 0 1 1 2-2 2 2 0 0 1-2 2Z" fill="#ffffff" opacity="1" data-original="#000000"></path></g></svg>